<svg width="26" height="26" viewBox="0 0 26 26" fill="none" xmlns="http://www.w3.org/2000/svg">
<g clip-path="url(#clip0_9413_1409)">
<path d="M25.9699 8.1585C25.8986 7.96045 25.7125 7.82695 25.502 7.82289L16.9727 7.65826L13.4953 0.984089C13.4079 0.816207 13.2343 0.710938 13.045 0.710938C12.8557 0.710938 12.6821 0.816207 12.5947 0.984089L9.11728 7.65821L0.498096 7.82284C0.286897 7.82685 0.100276 7.96127 0.0294368 8.16028C-0.0414029 8.35929 0.0183157 8.58135 0.179495 8.71796L5.75146 13.441L0.734889 24.5725C0.646225 24.7693 0.691572 25.0006 0.84808 25.1493C0.944666 25.2411 1.0706 25.289 1.19806 25.289C1.27698 25.289 1.35645 25.2706 1.42983 25.2329L13.1332 19.2237L24.6573 25.2314C24.8492 25.3315 25.0834 25.299 25.2407 25.1503C25.398 25.0017 25.4439 24.7698 25.355 24.5725L20.3373 13.4382L25.8235 8.71542C25.983 8.57805 26.0413 8.35655 25.9699 8.1585ZM19.3871 12.916C19.2165 13.0628 19.163 13.3043 19.2554 13.5095L23.8267 23.6531L13.3697 18.2016C13.2236 18.1255 13.0496 18.1249 12.903 18.2002L2.25731 23.6664L6.83457 13.5095C6.9276 13.303 6.8727 13.0598 6.69995 12.9135L1.86193 8.81256L9.43817 8.66778C9.62393 8.66428 9.79293 8.55947 9.8788 8.39473L13.0451 2.31765L16.2114 8.39473C16.2972 8.55947 16.4662 8.66423 16.6519 8.66778L24.1539 8.81266L19.3871 12.916Z" fill="#FFD400"/>
<path d="M13.4677 7.7314C13.3802 7.56352 13.2066 7.45825 13.0173 7.45825C12.828 7.45825 12.6544 7.56352 12.567 7.7314L11.3169 10.1308L8.19114 10.1906C7.97994 10.1946 7.79332 10.329 7.72243 10.528C7.65159 10.727 7.71131 10.9491 7.87249 11.0857L9.83335 12.7478L8.00295 16.8096C7.91428 17.0063 7.95963 17.2376 8.11614 17.3863C8.21272 17.4781 8.33866 17.526 8.46612 17.526C8.54503 17.526 8.62451 17.5076 8.69789 17.4699L13.05 15.2352L17.3338 17.4684C17.5257 17.5685 17.76 17.5359 17.9173 17.3873C18.0746 17.2388 18.1205 17.0068 18.0316 16.8095L16.1999 12.745L18.1305 11.0831C18.29 10.9457 18.3483 10.7242 18.2769 10.5261C18.2056 10.328 18.0195 10.1945 17.809 10.1905L14.7178 10.1308L13.4677 7.7314ZM15.2497 12.2229C15.0792 12.3698 15.0256 12.6112 15.118 12.8164L16.5033 15.8902L13.2866 14.2133C13.1405 14.1371 12.9664 14.1365 12.8198 14.2118L9.52526 15.9035L10.9165 12.8165C11.0095 12.6101 10.9546 12.3669 10.7818 12.2205L9.55487 11.1805L11.6377 11.1406C11.8234 11.1371 11.9924 11.0323 12.0783 10.8675L13.0173 9.06527L13.9564 10.8675C14.0422 11.0323 14.2112 11.1371 14.3969 11.1406L16.4609 11.1805L15.2497 12.2229Z" fill="#FFD400"/>
<path d="M17.4347 5.02841C17.5225 5.19599 17.6947 5.30014 17.8841 5.30014C17.9659 5.30014 18.0477 5.27983 18.1203 5.24124C18.3681 5.11073 18.4636 4.803 18.333 4.55518L17.3864 2.75799C17.2981 2.59092 17.1259 2.48682 16.9365 2.48682C16.8548 2.48682 16.773 2.50713 16.7004 2.54572C16.4526 2.67623 16.3571 2.98396 16.4877 3.23127L17.4347 5.02841Z" fill="#FFD400"/>
<path d="M21.2956 6.44616C21.2956 6.44616 23.3375 6.51726 23.3436 6.51726C23.4752 6.51726 23.6005 6.46698 23.6956 6.37507C23.791 6.28311 23.8459 6.15976 23.8504 6.02717C23.8555 5.89209 23.8068 5.7626 23.7143 5.66358C23.6219 5.56405 23.4959 5.50666 23.3609 5.50209L21.3307 5.43151C21.191 5.42638 21.06 5.47716 20.9605 5.57319C20.8655 5.6651 20.8102 5.7885 20.8056 5.92104C20.801 6.05662 20.8492 6.18611 20.9417 6.28514C21.0341 6.38421 21.16 6.44159 21.2956 6.44616Z" fill="#FFD400"/>
<path d="M19.2654 6.37562C19.2715 6.37562 19.277 6.37562 19.2831 6.37562C19.4152 6.37562 19.5401 6.32534 19.6356 6.23343C19.731 6.14147 19.7859 6.01812 19.7904 5.88553C19.8001 5.60572 19.5807 5.37015 19.3009 5.36045C19.1607 5.35537 19.0302 5.40666 18.9307 5.50213C18.8352 5.5941 18.7798 5.71795 18.7753 5.85003C18.7708 5.98562 18.819 6.11511 18.9115 6.21413C19.0043 6.31366 19.1298 6.37059 19.2654 6.37562Z" fill="#FFD400"/>
<path d="M8.06656 5.1736C8.14583 5.22082 8.23566 5.24571 8.32707 5.24571C8.5048 5.24571 8.67187 5.15125 8.76328 4.9984L9.80582 3.25559C9.87589 3.1388 9.89575 3.00275 9.86269 2.87123C9.82968 2.73971 9.74742 2.6285 9.63118 2.55893C9.55191 2.5117 9.46208 2.48682 9.37067 2.48682C9.19294 2.48682 9.02587 2.58178 8.93441 2.73412L7.89192 4.47744C7.82235 4.59373 7.80199 4.73028 7.83505 4.86185C7.86801 4.99332 7.95027 5.10403 8.06656 5.1736Z" fill="#FFD400"/>
<path d="M2.86057 6.51405C2.8661 6.51405 4.90857 6.443 4.90857 6.443C5.04416 6.43787 5.16959 6.38105 5.26201 6.28152C5.35494 6.1825 5.40313 6.053 5.3981 5.91737C5.39353 5.78488 5.33869 5.66148 5.24322 5.56952C5.14369 5.47354 5.01161 5.42276 4.87302 5.42784L2.84274 5.49842C2.56294 5.50858 2.34356 5.74425 2.35321 6.02406C2.35778 6.15609 2.41313 6.28 2.50809 6.37191C2.60356 6.46327 2.72848 6.51405 2.86057 6.51405Z" fill="#FFD400"/>
<path d="M6.91994 6.37191C6.92603 6.37191 6.93212 6.37191 6.93822 6.37191C7.0738 6.36683 7.19974 6.30996 7.29216 6.21043C7.38458 6.1114 7.43288 5.98191 7.42831 5.84633C7.42368 5.71424 7.36833 5.59039 7.27286 5.49842C7.17384 5.40296 7.04283 5.35167 6.90318 5.3568C6.76759 5.36137 6.64165 5.41875 6.54923 5.51777C6.45681 5.6173 6.40857 5.74629 6.41314 5.88187C6.41771 6.01436 6.47306 6.13781 6.56802 6.22972C6.66349 6.32169 6.78841 6.37191 6.91994 6.37191Z" fill="#FFD400"/>
<path d="M12.9548 21.1846C12.8674 21.1846 12.7806 21.2074 12.704 21.2511C12.5862 21.3181 12.5014 21.4274 12.4658 21.5583C12.4298 21.6888 12.447 21.826 12.5141 21.9438C12.6039 22.1017 12.7735 22.2002 12.9559 22.2002C13.0432 22.2002 13.13 22.1774 13.2067 22.1337C13.4499 21.9951 13.5353 21.6843 13.3966 21.4411C13.3062 21.2826 13.1371 21.1846 12.9548 21.1846Z" fill="#FFD400"/>
<path d="M18.0354 23.8895L14.9662 22.0959C14.8885 22.0502 14.8001 22.0264 14.7103 22.0264C14.5305 22.0264 14.3624 22.1228 14.2715 22.2782C14.203 22.395 14.1841 22.5316 14.2187 22.6632C14.2532 22.7942 14.3365 22.9044 14.4538 22.9729L17.5225 24.7661C17.6007 24.8117 17.6891 24.8356 17.7785 24.8356C17.9587 24.8356 18.1268 24.7391 18.2173 24.5843C18.2858 24.467 18.3046 24.3304 18.2701 24.1988C18.2359 24.0678 18.1522 23.958 18.0354 23.8895Z" fill="#FFD400"/>
<path d="M11.1902 22.1899C11.1024 22.1899 11.0155 22.2128 10.9389 22.2565L7.85035 24.0156C7.73254 24.0831 7.64773 24.1918 7.61168 24.3228C7.57613 24.4533 7.59345 24.5905 7.66043 24.7082C7.75036 24.8667 7.91992 24.9647 8.10222 24.9647C8.18957 24.9647 8.2764 24.9419 8.35308 24.8982L11.4415 23.1391C11.5594 23.0716 11.6442 22.9628 11.6802 22.8318C11.7158 22.7014 11.6985 22.5642 11.6315 22.4464C11.5416 22.2879 11.372 22.1899 11.1902 22.1899Z" fill="#FFD400"/>
<path d="M23.8392 17.7248C23.925 17.9005 24.0997 18.0092 24.2957 18.0092C24.3734 18.0092 24.448 17.9919 24.5186 17.9574C24.6405 17.8979 24.7314 17.7944 24.7756 17.6659C24.8193 17.5374 24.8106 17.3998 24.7513 17.2779L24.0805 15.9099C23.9946 15.7347 23.8194 15.6255 23.6239 15.6255C23.5462 15.6255 23.4716 15.6433 23.401 15.6777C23.2791 15.7372 23.1877 15.8407 23.1441 15.9692C23.1004 16.0977 23.109 16.2353 23.1684 16.3572L23.8392 17.7248Z" fill="#FFD400"/>
<path d="M23.1862 14.0861C23.1004 13.9104 22.9257 13.8018 22.7302 13.8018C22.6525 13.8018 22.5773 13.819 22.5068 13.8536C22.3849 13.9135 22.294 14.0171 22.2498 14.145C22.2062 14.2735 22.2148 14.4111 22.2747 14.533C22.3605 14.7087 22.5352 14.8174 22.7307 14.8174C22.8083 14.8174 22.8835 14.8001 22.9541 14.7655C23.076 14.7056 23.1669 14.602 23.2111 14.474C23.2547 14.3456 23.2461 14.208 23.1862 14.0861Z" fill="#FFD400"/>
<path d="M24.9853 11.4497C24.869 11.4497 24.7553 11.4898 24.6654 11.5629L23.4827 12.5237C23.3776 12.6095 23.3116 12.7309 23.2979 12.8659C23.2841 13.0005 23.3233 13.1331 23.4091 13.2382C23.5056 13.3575 23.6498 13.4256 23.8032 13.4256H23.8037C23.9195 13.4256 24.0332 13.3854 24.1236 13.3118L25.3058 12.3515C25.4109 12.2657 25.4764 12.1443 25.4906 12.0098C25.5044 11.8747 25.4653 11.7422 25.3795 11.637C25.2824 11.5178 25.1387 11.4497 24.9853 11.4497Z" fill="#FFD400"/>
<path d="M2.70262 15.6777C2.63254 15.6432 2.55738 15.6255 2.47969 15.6255C2.28413 15.6255 2.10949 15.7346 2.02367 15.9099L1.35285 17.2779C1.22945 17.5292 1.33406 17.8345 1.58543 17.9574C1.65551 17.9919 1.73066 18.0092 1.80836 18.0092C2.00392 18.0092 2.17855 17.9005 2.26488 17.7248L2.93519 16.3572C3.05859 16.1053 2.95449 15.8006 2.70262 15.6777Z" fill="#FFD400"/>
<path d="M3.14998 14.7655C3.22006 14.8001 3.29517 14.8174 3.37291 14.8174C3.56842 14.8174 3.74362 14.7087 3.82944 14.533C3.88885 14.4111 3.89799 14.2736 3.85376 14.145C3.81014 14.017 3.71868 13.9135 3.59681 13.8536C3.52673 13.819 3.45157 13.8018 3.37383 13.8018C3.17832 13.8018 3.00312 13.9104 2.91736 14.0861C2.85738 14.208 2.84875 14.3456 2.89298 14.4741C2.9367 14.602 3.02811 14.7056 3.14998 14.7655Z" fill="#FFD400"/>
<path d="M2.62076 12.5237L1.43862 11.5629C1.34823 11.4898 1.23443 11.4497 1.1187 11.4497C0.964833 11.4497 0.821122 11.5178 0.724079 11.6371C0.547869 11.8544 0.580877 12.1749 0.79822 12.3516L1.98041 13.3119C2.0708 13.3855 2.18455 13.4256 2.30033 13.4256C2.45419 13.4256 2.5979 13.3576 2.6949 13.2382C2.78026 13.1332 2.81987 13.0006 2.80565 12.866C2.79189 12.731 2.72638 12.6095 2.62076 12.5237Z" fill="#FFD400"/>
</g>
<defs>
<clipPath id="clip0_9413_1409">
<rect width="26" height="26" fill="white"/>
</clipPath>
</defs>
</svg>
